<?xml version="1.0" encoding="UTF-8"?>
<svg width="279px" height="96px" viewBox="0 0 279 96" version="1.1" xmlns="http://www.w3.org/2000/svg" xmlns:xlink="http://www.w3.org/1999/xlink">
    <title>FOA+ODL_cor</title>
    <defs>
        <path d="M0,25.5002791 C0,11.4163775 11.4165025,0 25.5,0 C39.5834975,0 51,11.4163775 51,25.5002791 C51,39.5836225 39.5834975,51 25.5,51 C11.4165025,51 0,39.5836225 0,25.5002791 L0,25.5002791 Z" id="path-1"></path>
    </defs>
    <g id="FOA+ODL_cor" stroke="none" stroke-width="1" fill="none" fill-rule="evenodd">
        <g id="Group">
            <polygon id="Fill-1" fill="#0B0B09" points="121.0505 96 121.9495 96 121.9495 0 121.0505 0"></polygon>
            <path d="M72,13.7620631 C72,13.7620631 67.0123025,9 60.2600228,9 C53.5071785,9 45.324599,14.393817 38.7219559,14.393817 C31.7082357,14.393817 25,9.01856445 25,9.01856445 L25,26.1839313 C25,26.1839313 30.0537634,31 37.066919,31 C44.0795098,31 51.8662582,25.5701793 58.6032919,25.5701793 C65.3437136,25.5701793 72,30.5898944 72,30.5898944 L72,13.7620631" id="Fill-2" fill="#007FBA"></path>
            <path d="M72,52.0844526 C72,52.0844526 67.0123025,57 60.2600228,57 C53.5071785,57 45.324599,51.4317562 38.7219559,51.4317562 C31.7082357,51.4317562 25,56.9796758 25,56.9796758 L25,38.9695516 C25,38.9695516 30.0537634,34 37.066919,34 C44.0795098,34 51.8662582,39.6036659 58.6032919,39.6036659 C65.3437136,39.6036659 72,34.4221622 72,34.4221622 L72,52.0844526" id="Fill-3" fill="#007FBA"></path>
            <path d="M63,32.0005692 C63,33.1041548 62.1041607,34 60.9988522,34 C59.8969871,34 59,33.1041548 59,32.0005692 C59,30.8958452 59.8969871,30 60.9988522,30 C62.1041607,30 63,30.8958452 63,32.0005692" id="Fill-4" fill="#007FBA"></path>
            <path d="M5.0008849,74 C2.27538198,74 0,72.1042044 0,68.9997076 C0,65.8952108 2.27538198,64 5.0008849,64 C7.72461802,64 10,65.8952108 10,68.9997076 C10,72.1042044 7.72461802,74 5.0008849,74 M5.0008849,65.180048 C3.0210607,65.180048 1.39047844,66.5975089 1.39047844,68.9716391 C1.39047844,71.3311502 3.03521916,72.7643997 5.0008849,72.7643997 C6.9807091,72.7643997 8.60952156,71.3311502 8.60952156,68.9716391 C8.60952156,66.5975089 6.9807091,65.180048 5.0008849,65.180048" id="Fill-5" fill="#0B0B09"></path>
            <path d="M20,72.5680037 C19.431348,73.2421939 18.4006664,74 16.6686103,74 C14.0102735,74 12,72.0195299 12,68.9994153 C12,65.9798854 14.0497015,64 16.6686103,64 C18.3740108,64 19.4046925,64.7583908 19.9072609,65.2776283 L19.3652645,66.3728219 C19.0076357,65.8956847 17.9908372,65.1934277 16.7208108,65.1934277 C14.7510759,65.1934277 13.3227822,66.6967606 13.3227822,68.9713484 C13.3227822,71.2471056 14.7638484,72.7504385 16.7208108,72.7504385 C17.9241983,72.7504385 18.8493683,72.2592679 19.4441205,71.5698749 L20,72.5680037" id="Fill-6" fill="#0B0B09"></path>
            <polyline id="Fill-7" fill="#0B0B09" points="27 73 21 73 21 64 26.8934024 64 26.8934024 65.0565878 22.2825021 65.0565878 22.2825021 67.7431226 26.5675025 67.7431226 26.5675025 68.7997104 22.2825021 68.7997104 22.2825021 71.9298383 27 71.9298383 27 73"></polyline>
            <path d="M37,74 L35.5001945,74 L34.5137412,71.3987848 L30.4022556,71.3987848 L29.4163858,74 L28,74 L31.9026445,64 L33.0827716,64 L37,74 Z M34.1392274,70.2287192 L32.4585818,65.7487818 L30.7773529,70.2287192 L34.1392274,70.2287192 L34.1392274,70.2287192 Z" id="Fill-8" fill="#0B0B09"></path>
            <path d="M47,73 L45.7063537,73 L40.2804808,65.8264961 C40.2804808,65.8264961 40.3085289,67.0394546 40.3085289,68.2133205 L40.3085289,73 L39,73 L39,64 L40.3898111,64 L45.7195192,71.0697997 C45.7195192,71.0697997 45.7063537,69.9605454 45.7063537,68.7741916 L45.7063537,64 L47,64 L47,73" id="Fill-9" fill="#0B0B09"></path>
            <path d="M54.0017697,74 C51.2752478,74 49,72.1033676 49,69 C49,65.8960477 51.2752478,64 54.0017697,64 C56.7247522,64 59,65.8960477 59,69 C59,72.1033676 56.7247522,74 54.0017697,74 M54.0017697,65.179841 C52.0214724,65.179841 50.3898065,66.5970533 50.3898065,68.9719364 C50.3898065,71.3310337 52.0350401,72.7646165 54.0017697,72.7646165 C55.9808872,72.7646165 57.6101935,71.3310337 57.6101935,68.9719364 C57.6101935,66.5970533 55.9808872,65.179841 54.0017697,65.179841" id="Fill-10" fill="#0B0B09"></path>
            <path d="M72,74 L70.4997083,74 L69.5127358,71.3987848 L65.4020999,71.3987848 L64.4168773,74 L63,74 L66.9023916,64 L68.0824422,64 L72,74 Z M69.1382462,70.2287192 L67.4577095,65.7487818 L65.7771729,70.2287192 L69.1382462,70.2287192 L69.1382462,70.2287192 Z" id="Fill-11" fill="#0B0B09"></path>
            <polyline id="Fill-12" fill="#0B0B09" points="79 73 72 73 72 72.0357143 77.164557 65.0701617 72.150748 65.0701617 72.150748 64 78.9039125 64 78.9039125 64.8611245 73.6576525 71.9173504 79 71.9173504 79 73"></polyline>
            <path d="M88,69.8120368 C88,71.037059 87.8961392,72.0053365 87.2882001,72.804032 C86.6797172,73.5718945 85.6780859,74 84.4997281,74 C83.3088635,74 82.3202828,73.5718945 81.7253942,72.804032 C81.1038608,72.0053365 81,71.037059 81,69.8120368 L81,64 L82.269168,64 L82.269168,69.6833679 C82.269168,70.5093389 82.2822186,71.3080344 82.6835237,71.8920842 C83.045677,72.433442 83.7237629,72.7607471 84.4997281,72.7607471 C85.2756933,72.7607471 85.954323,72.433442 86.3300707,71.8920842 C86.7313757,71.3080344 86.7444263,70.4957012 86.7444263,69.6833679 L86.7444263,64 L88,64 L88,69.8120368" id="Fill-13" fill="#0B0B09"></path>
            <polyline id="Fill-14" fill="#0B0B09" points="97 73 91 73 91 64 92.3613049 64 92.3613049 71.9173504 97 71.9173504 97 73"></polyline>
            <path d="M46.1392701,79.7397523 C45.6032117,79.0783425 44.8890511,78.7433278 44.0125547,78.7433278 C42.2379562,78.7433278 41,80.025348 41,81.8584472 C41,83.708211 42.249635,85 44.0382482,85 C44.9094891,85 45.6452555,84.651194 46.1392701,84.0104712 L46.1392701,84.8747286 L47,84.8747286 L47,76 L46.1392701,76 L46.1392701,79.7397523 Z M44.0382482,84.2167667 C42.5591241,84.2167667 41.8975182,83.0318606 41.8975182,81.8584472 C41.8975182,80.6856085 42.5591241,79.501277 44.0382482,79.501277 C45.5167883,79.501277 46.1778102,80.6856085 46.1778102,81.8584472 C46.1778102,83.0318606 45.5167883,84.2167667 44.0382482,84.2167667 L44.0382482,84.2167667 Z" id="Fill-15" fill="#0B0B09"></path>
            <path d="M51.4669789,79 C50.4739433,79 49.7294669,79.3648388 49.3740394,79.5825296 L49.2989914,79.6282723 L49.6598223,80.258749 L49.754683,80.1898595 C49.8795629,80.097272 50.5820125,79.7263709 51.492195,79.7263709 C52.4852305,79.7263709 53.1006244,80.2785891 53.1006244,81.1675393 L53.1006244,81.3808212 L51.5276177,81.4375861 C49.9215898,81.4965555 49,82.1457702 49,83.2187931 C49,84.2504822 49.8993756,85 51.1379683,85 C51.6711095,85 52.4263929,84.862221 53.1006244,84.2394599 L53.1006244,84.8798567 L54,84.8798567 L54,81.4695508 C54,80.4880132 53.7520413,80.0360981 53.3804035,79.6569303 C52.9307157,79.2149352 52.3045149,79 51.4669789,79 M53.1006244,82.0493249 L53.1006244,83.3124828 C52.7710134,83.7814825 52.1225985,84.2736291 51.2694524,84.2736291 C50.3118396,84.2736291 49.8831652,83.7434555 49.8831652,83.2187931 C49.8831652,82.5519427 50.4175072,82.1898595 51.4723823,82.140259 L53.1006244,82.0493249" id="Fill-16" fill="#0B0B09"></path>
            <path d="M59.4688452,83.6822221 C59.4635915,83.6908907 58.9030157,84.5040092 57.7561206,84.5040092 C56.609751,84.5040092 55.8080277,83.5128946 55.8080277,82.0947049 C55.8080277,80.7793831 56.6365451,79.7871126 57.7345802,79.7871126 C58.7627404,79.7871126 59.2030051,80.3465289 59.4157823,80.614101 L59.4793527,80.6944304 L59.9248713,80.1754677 L59.9721551,80.1090082 L59.9269728,80.0425486 C59.4562362,79.369862 58.6855101,79 57.7561206,79 C56.4022276,79 55,80.1720003 55,82.132269 C55,83.7342339 55.9498792,85.022394 57.2790795,85.2570252 L56.1495219,87 L57.1183146,87 L58.0156562,85.2755183 C59.2355784,85.1847865 59.7457182,84.5144116 59.9521908,84.24395 L60,84.1821137 L59.5345172,83.5857112 L59.4688452,83.6822221" id="Fill-17" fill="#0B0B09"></path>
            <path d="M69.9935724,79 C68.2871914,79 67,80.2945715 67,82.0112979 C67,83.7158997 68.2871914,85 69.9935724,85 C71.7061015,85 73,83.7158997 73,82.0112979 C73,80.2945715 71.7061015,79 69.9935724,79 M72.1403819,81.9875999 C72.1403819,83.3196473 71.2578482,84.2488289 69.9935724,84.2488289 C68.7566837,84.2488289 67.8590592,83.2987049 67.8590592,81.9875999 C67.8590592,80.6561036 68.7365626,79.7263709 69.9935724,79.7263709 C71.2578482,79.7263709 72.1403819,80.6561036 72.1403819,81.9875999" id="Fill-18" fill="#0B0B09"></path>
            <path d="M62.6448829,76.8926746 C62.6794081,76.7278535 62.8545006,76.5617547 63.122688,76.5617547 C63.3563502,76.5617547 63.6004932,76.6665247 63.7620222,76.7363714 C63.8119605,76.7576661 63.8551171,76.7759796 63.8871763,76.7866269 C63.9075216,76.7947189 63.9346486,76.8049404 63.9636252,76.8168654 C64.122688,76.8807496 64.4167694,77 64.8366215,77 C65.3545006,77 65.9180025,76.7304089 65.9932182,76.2180579 L66,76.1597104 L65.3545006,76.024276 L65.3409371,76.1107325 C65.3193588,76.2695911 65.1491985,76.4382453 64.8766954,76.4382453 C64.6436498,76.4382453 64.4001233,76.3330494 64.2385943,76.2627768 C64.188656,76.2414821 64.1461159,76.2240204 64.1128237,76.2120954 C64.0930949,76.2052811 64.0690506,76.1963373 64.041307,76.1839864 C63.877312,76.1196763 63.5752158,76 63.1491985,76 C62.6387176,76 62.0826141,76.2687394 62.0086313,76.7819421 L62,76.8394378 L62.6263872,76.9744463 L62.6448829,76.8926746" id="Fill-19" fill="#0B0B09"></path>
            <path d="M63.4666667,79 C62.4738739,79 61.7285285,79.3648388 61.3735736,79.5825296 L61.2972973,79.6282723 L61.6594595,80.258749 L61.754955,80.1898595 C61.8798799,80.097272 62.5813814,79.7263709 63.4936937,79.7263709 C64.4852853,79.7263709 65.1021021,80.2785891 65.1021021,81.1675393 L65.1021021,81.3808212 L63.5291291,81.4375861 C61.9213213,81.4965555 61,82.1457702 61,83.2187931 C61,84.2504822 61.8984985,85 63.1381381,85 C63.6714715,85 64.427027,84.8627721 65.1021021,84.2394599 L65.1021021,84.8798567 L66,84.8798567 L66,81.4695508 C66,80.4880132 65.7531532,80.0360981 65.381982,79.6569303 C64.9315315,79.2149352 64.3051051,79 63.4666667,79 M65.1021021,82.0493249 L65.1021021,83.3124828 C64.7723724,83.7814825 64.1231231,84.2736291 63.2696697,84.2736291 C62.3135135,84.2736291 61.8846847,83.7434555 61.8846847,83.2187931 C61.8846847,82.5519427 62.418018,82.1898595 63.4726727,82.140259 L65.1021021,82.0493249" id="Fill-20" fill="#0B0B09"></path>
            <path d="M32.1790213,81.9893577 C32.1790213,83.0104556 31.5843273,84.2612024 30.365957,84.2612024 C29.2144688,84.2612024 28.8209787,83.4518297 28.8209787,82.5769231 L28.8209787,79 L28,79 L28,82.4777819 C28,83.3650112 28.2145803,83.8971247 28.5105339,84.2808066 C28.8644521,84.7406647 29.4998328,85 30.2355367,85 C31.0587448,85 31.7922194,84.5810306 32.1790213,84.0371546 L32.1790213,84.877894 L33,84.877894 L33,79 L32.1790213,79 L32.1790213,81.9893577" id="Fill-21" fill="#0B0B09"></path>
            <path d="M37.7414553,79 C36.9851158,79 36.2690187,79.3756678 35.8120176,79.9790983 L35.8120176,79.098416 L35,79.098416 L35,85 L35.8120176,85 L35.8120176,82.0728278 C35.8120176,80.8744025 36.5733186,79.7412129 37.7171996,79.7412129 C38.8357222,79.7412129 39.1753032,80.5954635 39.1753032,81.5200112 L39.1753032,85 L40,85 L40,81.4952667 C40,80.3333958 39.5777288,79 37.7414553,79" id="Fill-22" fill="#0B0B09"></path>
            <path d="M26.8863291,76.308601 C26.8052145,76.2643509 26.2876259,76 25.4461305,76 C24.6890606,76 24.2895572,76.5430688 24.1869223,76.7085754 C23.952959,77.0654492 23.8448062,77.5700147 23.8448062,78.2981291 L23.8448062,78.9940617 L23,78.9940617 L23,79.7779197 L23.8448062,79.7779197 L23.8448062,85 L24.6565043,85 L24.6565043,79.7779197 L26.444889,79.7779197 L26.444889,78.9940617 L24.6565043,78.9940617 L24.6565043,78.2343401 C24.6565043,77.299917 24.8049386,76.7574229 25.5675266,76.7574229 C26.2230653,76.7574229 26.7069941,76.9844199 26.8030073,77.0367154 L27,76.3815848 C27,76.3815848 26.9486826,76.3425069 26.8863291,76.308601" id="Fill-23" fill="#0B0B09"></path>
            <path d="M251.606211,76.8087424 L253.279239,76.8087424 L253.279239,70.8016812 L251.606211,70.8016812 L251.606211,76.8087424 Z M175.898171,72.4987895 C175.898171,73.9840619 175.574504,75.6581708 173.868771,75.6581708 C172.163039,75.6581708 171.839372,73.9840619 171.839372,72.4987895 C171.839372,71.0153329 172.163039,69.3400134 173.868771,69.3400134 C175.574504,69.3400134 175.898171,71.0153329 175.898171,72.4987895 L175.898171,72.4987895 Z M177.737543,72.4987895 C177.737543,69.9519166 176.534226,68 173.868771,68 C171.203881,68 170,69.9519166 170,72.4987895 C170,75.0486886 171.203881,76.9993948 173.868771,76.9993948 C176.534226,76.9993948 177.737543,75.0486886 177.737543,72.4987895 L177.737543,72.4987895 Z M180.218045,73.7322798 C180.240036,73.2656355 180.250186,71.8299933 180.964057,71.8299933 C181.611389,71.8299933 181.800289,72.4291863 181.81213,72.9188299 L183.462039,72.9188299 C183.473881,71.5073974 182.414353,70.633423 180.98774,70.633423 C179.324861,70.633423 178.489193,72.2246133 178.489193,73.8164089 C178.489193,75.4075992 179.324861,77 180.98774,77 C182.525437,77 183.406215,76.161735 183.462039,74.6298588 L181.834685,74.6298588 C181.823408,75.1207128 181.632817,75.8028245 180.98774,75.8028245 C180.273305,75.8028245 180.262028,74.2824479 180.218045,73.7322798 L180.218045,73.7322798 Z M186.034454,73.0985878 C186.057573,72.4394755 186.224481,71.8299933 186.993611,71.8299933 C187.807852,71.8299933 187.975324,72.4394755 187.975324,73.0985878 L186.034454,73.0985878 Z M186.034454,74.2945528 L189.703048,74.2945528 C189.703048,73.900538 189.703048,73.5174176 189.657938,73.1464022 C189.613391,72.7632818 189.535576,72.403766 189.378818,72.0690652 C188.911926,71.0153329 188.042989,70.633423 186.993611,70.633423 C185.289006,70.633423 184.306165,72.0206456 184.306165,73.8279085 C184.306165,75.8379287 185.076988,77 186.993611,77 C188.298426,77 189.378818,76.5085407 189.524299,75.0238736 L188.018742,75.0238736 C187.863676,75.5752522 187.573278,75.8028245 186.993611,75.8028245 C186.135388,75.8028245 186.034454,75.0735037 186.034454,74.2945528 L186.034454,74.2945528 Z M194.234941,73.9955615 C194.234941,74.701883 194.201108,75.8022192 193.275219,75.8022192 C192.8072,75.8022192 192.461542,75.4439139 192.461542,74.9415602 C192.461542,73.9725622 193.65471,73.9828514 194.234941,73.9955615 L194.234941,73.9955615 Z M194.4791,76.8190316 L195.984656,76.8190316 C195.961537,76.639879 195.917555,76.460121 195.906277,76.161735 L195.906277,72.8825151 C195.906277,71.0752522 194.646572,70.633423 193.519379,70.633423 C192.91772,70.633423 192.327339,70.7284465 191.870034,71.0153329 C191.42457,71.2913248 191.122895,71.7585743 191.113309,72.5114997 L192.718107,72.5114997 C192.696116,72.2367182 192.885579,71.6496301 193.46581,71.6496301 C194.055064,71.6496301 194.234941,72.1404842 194.234941,72.3928716 L194.234941,72.9551446 C193.565053,72.93154 192.718107,72.9666443 192.048219,73.2771352 C191.034366,73.7455952 190.855616,74.7618023 190.855616,75.1800269 C190.855616,76.3529926 191.636588,76.9993948 192.684275,76.9993948 C193.443255,76.9993948 194.022359,76.7112979 194.400721,76.0182919 L194.423276,76.0182919 C194.423276,76.2688635 194.446395,76.5442502 194.4791,76.8190316 L194.4791,76.8190316 Z M200.927617,76.8190316 L202.600645,76.8190316 L202.600645,72.9061197 C202.600645,72.7033625 202.578653,72.3202421 202.488433,71.9492266 C202.28882,71.0752522 201.206737,70.633423 200.649624,70.633423 C199.802679,70.633423 199.278835,70.9923336 198.933178,71.5418964 L198.910059,71.5073974 L198.910059,70.8125757 L197.248308,70.8125757 L197.248308,76.8190316 L198.921336,76.8190316 L198.921336,73.2057162 C198.945019,72.3329523 199.401197,71.829388 199.92504,71.829388 C200.749431,71.829388 200.918031,72.5593141 200.927617,73.2057162 L200.927617,76.8190316 Z M206.4525,69.9022865 L207.979483,68.1797579 L206.484641,68.1797579 L205.559316,69.9022865 L206.4525,69.9022865 Z M206.965065,73.9955615 C206.965065,74.701883 206.930105,75.8022192 206.007036,75.8022192 C205.537889,75.8022192 205.192231,75.4439139 205.192231,74.9415602 C205.192231,73.9725622 206.385398,73.9828514 206.965065,73.9955615 L206.965065,73.9955615 Z M207.210353,76.8190316 L208.715909,76.8190316 C208.69279,76.639879 208.649371,76.460121 208.637529,76.161735 L208.637529,72.8825151 C208.637529,71.0752522 207.377825,70.633423 206.250631,70.633423 C205.6501,70.633423 205.058028,70.7284465 204.60185,71.0153329 C204.156386,71.2913248 203.854147,71.7585743 203.842869,72.5114997 L205.448796,72.5114997 C205.426241,72.2367182 205.615704,71.6496301 206.195371,71.6496301 C206.78688,71.6496301 206.965065,72.1404842 206.965065,72.3928716 L206.965065,72.9551446 C206.295178,72.93154 205.448796,72.9666443 204.780036,73.2771352 C203.76449,73.7455952 203.587432,74.7618023 203.587432,75.1800269 C203.587432,76.3529926 204.366713,76.9993948 205.415527,76.9993948 C206.173944,76.9993948 206.753047,76.7112979 207.132537,76.0182919 L207.154529,76.0182919 C207.154529,76.2688635 207.175956,76.5442502 207.210353,76.8190316 L207.210353,76.8190316 Z M212.712117,72.3329523 L213.436137,72.3329523 L213.436137,70.7405514 C212.599341,70.7169469 211.886598,70.9560188 211.530227,71.9014122 L211.506544,71.9014122 L211.474403,70.8125757 L209.946292,70.8125757 C209.968283,71.2550101 210.00268,71.7585743 210.00268,72.0085407 L210.013393,76.8190316 L211.674016,76.8190316 L211.674016,73.8394082 C211.685858,73.4447882 211.71969,73.1094822 211.897876,72.7753867 C212.064784,72.5236046 212.431869,72.3565568 212.712117,72.3329523 L212.712117,72.3329523 Z M214.823842,69.7231338 L216.60739,69.7231338 L216.60739,68.1785474 L214.823842,68.1785474 L214.823842,69.7231338 Z M214.879666,76.8196369 L216.55213,76.8196369 L216.55213,70.8125757 L214.879666,70.8125757 L214.879666,76.8196369 Z M221.897136,73.8164089 C221.897136,74.7745124 221.7291,75.8028245 220.703969,75.8028245 C219.678274,75.8028245 219.510802,74.7745124 219.510802,73.8164089 C219.510802,72.8595158 219.678274,71.8299933 220.703969,71.8299933 C221.7291,71.8299933 221.897136,72.8595158 221.897136,73.8164089 L221.897136,73.8164089 Z M223.625988,73.8164089 C223.625988,71.9244116 222.533191,70.633423 220.703969,70.633423 C218.875874,70.633423 217.783641,71.9244116 217.783641,73.8164089 C217.783641,75.7071957 218.875874,76.9993948 220.703969,76.9993948 C222.533191,76.9993948 223.625988,75.7071957 223.625988,73.8164089 L223.625988,73.8164089 Z M232.243182,73.8049092 C232.243182,74.6316745 231.941507,75.7913248 231.038737,75.7913248 C229.967931,75.7913248 229.83542,74.7279085 229.83542,73.8049092 C229.83542,72.8831204 229.967931,71.8197041 231.038737,71.8197041 C231.941507,71.8197041 232.243182,72.9793544 232.243182,73.8049092 L232.243182,73.8049092 Z M232.299006,76.8087424 L233.970342,76.8087424 C233.947787,76.4141224 233.915646,76.0073974 233.915646,75.6121722 L233.915646,68.1682582 L232.243182,68.1682582 L232.243182,71.4958978 L232.220627,71.4958978 C231.908238,70.9929388 231.306015,70.6219233 230.726348,70.6219233 C228.986782,70.6219233 228.106568,72.1907196 228.106568,73.8049092 C228.106568,75.3482851 228.875135,76.9885003 230.514894,76.9885003 C231.239478,76.9885003 231.863691,76.6652993 232.231904,75.9595831 L232.253332,75.9595831 C232.253332,76.2464694 232.275323,76.5218561 232.299006,76.8087424 L232.299006,76.8087424 Z M236.807779,73.0876933 C236.829207,72.4297915 236.997807,71.8190989 237.766373,71.8190989 C238.580614,71.8190989 238.748086,72.4297915 238.748086,73.0876933 L236.807779,73.0876933 Z M236.807779,74.2836584 L240.475246,74.2836584 C240.475246,73.8890383 240.475246,73.5071284 240.431264,73.136113 C240.386153,72.7511769 240.309466,72.3928716 240.15158,72.0587761 C239.684124,71.0050437 238.814624,70.6225286 237.766373,70.6225286 C236.06064,70.6225286 235.080055,72.0109617 235.080055,73.8182246 C235.080055,75.8276395 235.849186,76.9885003 237.766373,76.9885003 C239.071188,76.9885003 240.15158,76.4988568 240.297061,75.0141896 L238.793196,75.0141896 C238.636438,75.5637525 238.34604,75.7913248 237.766373,75.7913248 C236.907586,75.7913248 236.807779,75.062004 236.807779,74.2836584 L236.807779,74.2836584 Z M245.322911,76.8087424 L250.541608,76.8087424 L250.541608,75.3731002 L247.051763,75.3731002 L247.051763,68.1694687 L245.322911,68.1694687 L245.322911,76.8087424 Z M251.550387,69.7128447 L253.334499,69.7128447 L253.334499,68.1688635 L251.550387,68.1688635 L251.550387,69.7128447 Z M256.24806,72.3583726 C256.24806,71.962542 256.460642,71.8197041 256.916256,71.8197041 C257.29631,71.8197041 257.65381,71.999462 257.675801,72.4049765 L259.181357,72.4049765 C259.102414,71.0770679 258.099274,70.6219233 256.916256,70.6219233 C255.936799,70.6219233 254.519772,71.1726967 254.519772,72.4291863 C254.519772,73.8297243 255.51389,74.0802959 256.583004,74.3544721 C256.916256,74.4392065 257.720347,74.6437794 257.720347,75.1219233 C257.720347,75.5885676 257.37469,75.7913248 256.916256,75.7913248 C256.426246,75.7913248 256.036606,75.5286483 256.002773,75.062004 L254.453798,75.062004 C254.475226,76.437727 255.613697,76.9885003 256.916256,76.9885003 C257.955485,76.9885003 259.448635,76.3305985 259.448635,75.0141896 C259.448635,72.7650975 256.24806,73.303766 256.24806,72.3583726 L256.24806,72.3583726 Z M264.485199,73.8049092 C264.485199,74.7273033 264.35156,75.7913248 263.281319,75.7913248 C262.377421,75.7913248 262.077438,74.630464 262.077438,73.8049092 C262.077438,72.9793544 262.377421,71.8190989 263.281319,71.8190989 C264.35156,71.8190989 264.485199,72.8849361 264.485199,73.8049092 L264.485199,73.8049092 Z M266.214051,73.8049092 C266.214051,72.1901143 265.332145,70.6219233 263.593707,70.6219233 C263.01404,70.6219233 262.412382,70.9929388 262.098865,71.496503 L262.077438,71.496503 L262.077438,68.1694687 L260.40441,68.1694687 L260.40441,75.6121722 C260.40441,76.0073974 260.371141,76.4141224 260.348586,76.8087424 L262.020486,76.8087424 C262.043041,76.5218561 262.066724,76.2464694 262.066724,75.9595831 L262.088715,75.9595831 C262.456364,76.6652993 263.080014,76.9885003 263.805726,76.9885003 C265.443793,76.9885003 266.214051,75.3494956 266.214051,73.8049092 L266.214051,73.8049092 Z M271.179567,73.8049092 C271.179567,74.763618 271.012095,75.7913248 269.9864,75.7913248 C268.961268,75.7913248 268.793232,74.763618 268.793232,73.8049092 C268.793232,72.8486214 268.961268,71.8190989 269.9864,71.8190989 C271.012095,71.8190989 271.179567,72.8486214 271.179567,73.8049092 L271.179567,73.8049092 Z M272.906727,73.8049092 C272.906727,71.9147276 271.815622,70.6219233 269.9864,70.6219233 C268.157177,70.6219233 267.066072,71.9147276 267.066072,73.8049092 C267.066072,75.6969065 268.157177,76.9885003 269.9864,76.9885003 C271.815622,76.9885003 272.906727,75.6969065 272.906727,73.8049092 L272.906727,73.8049092 Z M277.249721,73.9852724 C277.249721,74.6909886 277.217016,75.7913248 276.290563,75.7913248 C275.82198,75.7913248 275.476886,75.4330195 275.476886,74.9300605 C275.476886,73.9610625 276.670053,73.9731675 277.249721,73.9852724 L277.249721,73.9852724 Z M279,76.8087424 C278.977445,76.6289845 278.932335,76.4504371 278.922185,76.1508406 L278.922185,72.872226 C278.922185,71.0655683 277.66248,70.6219233 276.53585,70.6219233 C275.934756,70.6219233 275.342683,70.7175521 274.886505,71.0062542 C274.441041,71.2798252 274.139366,71.7482851 274.127525,72.5012105 L275.733451,72.5012105 C275.71146,72.2264291 275.900359,71.6399462 276.480026,71.6399462 C277.071535,71.6399462 277.249721,72.1308003 277.249721,72.3819771 L277.249721,72.9442502 C276.579833,72.9200403 275.733451,72.9557498 275.064691,73.266846 C274.049145,73.7340955 273.87096,74.7515131 273.87096,75.1691325 C273.87096,76.3414929 274.651368,76.9885003 275.700182,76.9885003 C276.458599,76.9885003 277.037138,76.701614 277.417193,76.0073974 L277.43862,76.0073974 C277.43862,76.2579691 277.461739,76.5333557 277.495572,76.8087424 L279,76.8087424 L279,76.8087424 Z" id="Fill-24" fill="#E9832C"></path>
            <g id="Group-45" transform="translate(146.000000, 8.000000)">
                <mask id="mask-2" fill="white">
                    <use xlink:href="#path-1"></use>
                </mask>
                <g id="Clip-26"></g>
                <path d="M15.5543079,38.0854776 C15.5543079,38.0854776 17.8445298,34.8592192 23.6211584,34.8592192 C29.8554965,34.8592192 28.2027187,37.7371756 35.720876,37.7371756 C41.5081101,37.7371756 41.2022262,34.8698246 47.0854676,34.8698246 C52.4730431,34.8698246 54.1626609,37.7126159 57.8611768,37.7271285 L62.2630024,37.7271285 L62.2931442,38.2049273 L57.8762477,38.2049273 C54.0967954,38.2395342 52.481974,41.2425221 47.0854676,41.2425221 C41.1815734,41.2425221 41.5142501,38.2412087 35.720876,38.2412087 C28.1725768,38.2412087 29.6590163,41.3028051 23.6211584,41.3028051 C17.5922314,41.3028051 15.5543079,38.0854776 15.5543079,38.0854776 Z M18.6371487,37.526185 C18.6371487,38.0006348 19.0222945,38.3857764 19.4967494,38.3857764 C19.9712044,38.3857764 20.3563501,38.0006348 20.3563501,37.526185 C20.3563501,37.0511771 19.9712044,36.6660355 19.4967494,36.6660355 C19.0222945,36.6660355 18.6371487,37.0511771 18.6371487,37.526185 L18.6371487,37.526185 Z" id="Fill-25" fill="#1C627E" mask="url(#mask-2)"></path>
                <path d="M37.1671263,28.981624 C37.1671263,28.981624 39.4573483,25.7548074 45.2339769,25.7548074 C51.4688731,25.7548074 49.8160954,28.633322 57.3331363,28.633322 C63.1209286,28.633322 62.8156028,25.765971 68.6982861,25.765971 C74.0864198,25.765971 75.7754794,28.6087623 79.4739953,28.6232749 L83.876379,28.6232749 L83.9059627,29.1010737 L79.4890662,29.1010737 C75.7096139,29.1356806 74.0947925,32.1386685 68.6982861,32.1386685 C62.7949501,32.1386685 63.1270686,29.1373551 57.3331363,29.1373551 C49.7853953,29.1373551 51.272393,32.1989515 45.2339769,32.1989515 C39.2050499,32.1989515 37.1671263,28.981624 37.1671263,28.981624 Z M40.2499672,28.4217732 C40.2499672,28.8967812 40.6345548,29.2819228 41.1095679,29.2819228 C41.584581,29.2819228 41.9691686,28.8967812 41.9691686,28.4217732 C41.9691686,27.9473235 41.584581,27.5621819 41.1095679,27.5621819 C40.6345548,27.5621819 40.2499672,27.9473235 40.2499672,28.4217732 L40.2499672,28.4217732 Z" id="Fill-27" fill="#1C627E" mask="url(#mask-2)"></path>
                <path d="M24.3607499,24.0568355 C24.3607499,24.0568355 26.6515301,20.8300189 32.4276005,20.8300189 C38.6624967,20.8300189 37.0097189,23.7085335 44.5273181,23.7085335 C50.3145521,23.7085335 50.0092264,20.8411825 55.8919096,20.8411825 C61.2800433,20.8411825 62.969103,23.6839738 66.668177,23.6984864 L71.0700026,23.6984864 L71.0995863,24.1768433 L66.6826898,24.1768433 C62.9032375,24.2108921 61.2884161,27.21388 55.8919096,27.21388 C49.9880155,27.21388 50.3206921,24.2125666 44.5273181,24.2125666 C36.9795771,24.2125666 38.4654584,27.2736048 32.4276005,27.2736048 C26.3986735,27.2736048 24.3607499,24.0568355 24.3607499,24.0568355 Z M26.9334121,23.4969848 C26.9334121,23.9719927 27.3179997,24.3565761 27.7930129,24.3565761 C28.268026,24.3565761 28.6526136,23.9719927 28.6526136,23.4969848 C28.6526136,23.022535 28.268026,22.6373934 27.7930129,22.6373934 C27.3179997,22.6373934 26.9334121,23.022535 26.9334121,23.4969848 L26.9334121,23.4969848 Z" id="Fill-28" fill="#1C627E" mask="url(#mask-2)"></path>
                <path d="M36.1400709,19.6662216 C36.1400709,19.6662216 38.4308511,16.439405 44.2074796,16.439405 C50.4418177,16.439405 48.7890399,19.3173615 56.3066391,19.3173615 C62.0938731,19.3173615 61.7885474,16.4500104 67.6712306,16.4500104 C73.0593643,16.4500104 74.7489821,19.2928017 78.447498,19.3073143 L82.8493236,19.3073143 L82.8794655,19.7856713 L78.4620108,19.7856713 C74.6825584,19.81972 73.0677371,22.8232661 67.6712306,22.8232661 C61.7678947,22.8232661 62.1000131,19.8219527 56.3066391,19.8219527 C48.7588981,19.8219527 50.2453375,22.8829909 44.2074796,22.8829909 C38.1785527,22.8829909 36.1400709,19.6662216 36.1400709,19.6662216 Z M38.8277187,19.1063709 C38.8277187,19.5813788 39.2128645,19.9659622 39.6873194,19.9659622 C40.1623325,19.9659622 40.5469201,19.5813788 40.5469201,19.1063709 C40.5469201,18.6313629 40.1623325,18.2462214 39.6873194,18.2462214 C39.2128645,18.2462214 38.8277187,18.6313629 38.8277187,19.1063709 L38.8277187,19.1063709 Z" id="Fill-29" fill="#1C627E" mask="url(#mask-2)"></path>
                <path d="M35.5076504,9.94279241 C35.5076504,9.94279241 37.7984305,6.71597588 43.5745009,6.71597588 C49.8093972,6.71597588 48.1566194,9.5939323 55.6742185,9.5939323 C61.4614526,9.5939323 61.1561269,6.72658123 67.0388101,6.72658123 C72.4269438,6.72658123 74.1160034,9.56993072 77.8150775,9.5844433 L82.2169031,9.5844433 L82.2464867,10.0622421 L77.8301484,10.0622421 C74.0501379,10.0962909 72.4353165,13.0998369 67.0388101,13.0998369 C61.1349159,13.0998369 61.4681508,10.0985236 55.6742185,10.0985236 C48.1264775,10.0985236 49.6123588,13.1595618 43.5745009,13.1595618 C37.5461321,13.1595618 35.5076504,9.94279241 35.5076504,9.94279241 Z M38.5904912,9.3829417 C38.5904912,9.85794963 38.975637,10.242533 39.4500919,10.242533 C39.9251051,10.242533 40.3096927,9.85794963 40.3096927,9.3829417 C40.3096927,8.90793376 39.9251051,8.52335037 39.4500919,8.52335037 C38.975637,8.52335037 38.5904912,8.90793376 38.5904912,9.3829417 L38.5904912,9.3829417 Z" id="Fill-30" fill="#1C627E" mask="url(#mask-2)"></path>
                <path d="M2.25170738,14.912235 C2.25170738,14.912235 4.53746388,11.6921166 10.3023706,11.6921166 C16.5249869,11.6921166 14.875,14.5644912 22.3775282,14.5644912 C28.1541568,14.5644912 27.8493893,11.7027219 33.7203507,11.7027219 C39.0973207,11.7027219 40.7830313,14.5399315 44.474849,14.5544441 L48.8677436,14.5544441 L48.8978855,15.0316847 L44.4899199,15.0316847 C40.7171657,15.0657335 39.1062516,18.0631396 33.7203507,18.0631396 C27.8281784,18.0631396 28.1602968,15.0679662 22.3775282,15.0679662 C14.8448582,15.0679662 16.3285067,18.1228644 10.3023706,18.1228644 C4.28572367,18.1228644 2.25170738,14.912235 2.25170738,14.912235 Z M5.71746126,14.2641925 C5.71746126,14.738084 6.10149068,15.1221092 6.57538744,15.1221092 C7.04928421,15.1221092 7.43331363,14.738084 7.43331363,14.2641925 C7.43331363,13.7903009 7.04928421,13.4062757 6.57538744,13.4062757 C6.10149068,13.4062757 5.71746126,13.7903009 5.71746126,14.2641925 L5.71746126,14.2641925 Z" id="Fill-31" fill="#1C627E" mask="url(#mask-2)"></path>
                <path d="M2.25170738,14.912235 C2.25170738,14.912235 4.53746388,11.6921166 10.3023706,11.6921166 C16.5249869,11.6921166 14.875,14.5644912 22.3775282,14.5644912 C28.1541568,14.5644912 27.8493893,11.7027219 33.7203507,11.7027219 C39.0973207,11.7027219 40.7830313,14.5399315 44.474849,14.5544441 L48.8677436,14.5544441 L48.8978855,15.0316847 L44.4899199,15.0316847 C40.7171657,15.0657335 39.1062516,18.0631396 33.7203507,18.0631396 C27.8281784,18.0631396 28.1602968,15.0679662 22.3775282,15.0679662 C14.8448582,15.0679662 16.3285067,18.1228644 10.3023706,18.1228644 C4.28572367,18.1228644 2.25170738,14.912235 2.25170738,14.912235 Z M5.71746126,14.2641925 C5.71746126,14.738084 6.10149068,15.1221092 6.57538744,15.1221092 C7.04928421,15.1221092 7.43331363,14.738084 7.43331363,14.2641925 C7.43331363,13.7903009 7.04928421,13.4062757 6.57538744,13.4062757 C6.10149068,13.4062757 5.71746126,13.7903009 5.71746126,14.2641925 L5.71746126,14.2641925 Z" id="Fill-32" fill="#1C627E" mask="url(#mask-2)"></path>
                <path d="M40.2025217,4.98283882 C40.2025217,4.98283882 38.1645981,8.19960818 32.1356711,8.19960818 C26.0978132,8.19960818 27.5842527,5.13856997 20.0365117,5.13856997 C14.2425795,5.13856997 14.5752561,8.13988333 8.67192015,8.13988333 C3.27485553,8.13988333 1.66059233,5.13633727 -2.11941818,5.10228852 L-6.5357565,5.10228852 L-6.50617284,4.62448971 L-2.10434726,4.62448971 C1.59416864,4.60941895 3.28378645,1.76718581 8.67192015,1.76718581 C14.5546034,1.76718581 14.2487195,4.63453688 20.0365117,4.63453688 C27.5541108,4.63453688 25.9013331,1.75602228 32.1356711,1.75602228 C37.9122997,1.75602228 40.2025217,4.98283882 40.2025217,4.98283882 Z M36.4766548,4.33367991 C36.4766548,3.85867198 36.0915091,3.47408859 35.6170541,3.47408859 C35.142041,3.47408859 34.7574534,3.85867198 34.7574534,4.33367991 C34.7574534,4.80812967 35.142041,5.19327124 35.6170541,5.19327124 C36.0915091,5.19327124 36.4766548,4.80812967 36.4766548,4.33367991 L36.4766548,4.33367991 Z" id="Fill-33" fill="#1C627E" mask="url(#mask-2)"></path>
                <path d="M30.3941424,9.46778448 C30.3941424,9.46778448 28.3562188,12.6845538 22.3272918,12.6845538 C16.2894339,12.6845538 17.7758734,9.62351563 10.2281324,9.62351563 C4.43420016,9.62351563 4.76687681,12.624829 -1.13701734,12.624829 C-6.53352377,12.624829 -8.14834515,9.62184111 -11.9277975,9.58723418 L-16.344694,9.58723418 L-16.3145521,9.10943537 L-11.9127266,9.10943537 C-8.21421066,9.09492279 -6.52459286,6.25213147 -1.13701734,6.25213147 C4.74566588,6.25213147 4.44034016,9.11948254 10.2281324,9.11948254 C17.7457315,9.11948254 16.0929538,6.24096794 22.3272918,6.24096794 C28.1039204,6.24096794 30.3941424,9.46778448 30.3941424,9.46778448 Z M26.6682755,8.81862557 C26.6682755,8.34361764 26.2831298,7.95903425 25.8081166,7.95903425 C25.3336617,7.95903425 24.9490741,8.34361764 24.9490741,8.81862557 C24.9490741,9.29307533 25.3336617,9.6782169 25.8081166,9.6782169 C26.2831298,9.6782169 26.6682755,9.29307533 26.6682755,8.81862557 L26.6682755,8.81862557 Z" id="Fill-34" fill="#1C627E" mask="url(#mask-2)"></path>
                <path d="M27.8962766,18.9751995 C27.8962766,18.9751995 25.858353,22.1919688 19.8294261,22.1919688 C13.7915682,22.1919688 15.2780076,19.1309306 7.73026661,19.1309306 C1.93633438,19.1309306 2.26901103,22.132244 -3.63488311,22.132244 C-9.03138955,22.132244 -10.6462109,19.1292561 -14.4256633,19.0946492 L-18.8425598,19.0946492 L-18.8124179,18.6168504 L-14.4105923,18.6168504 C-10.7120764,18.6023378 -9.02245863,15.7589883 -3.63488311,15.7589883 C2.24780011,15.7589883 1.94247439,18.6268975 7.73026661,18.6268975 C15.2473076,18.6268975 13.595088,15.7483829 19.8294261,15.7483829 C25.6060546,15.7483829 27.8962766,18.9751995 27.8962766,18.9751995 Z M24.1704098,18.3260406 C24.1704098,17.8510326 23.785264,17.4664492 23.310809,17.4664492 C22.8357959,17.4664492 22.4512083,17.8510326 22.4512083,18.3260406 C22.4512083,18.8004903 22.8357959,19.1856319 23.310809,19.1856319 C23.785264,19.1856319 24.1704098,18.8004903 24.1704098,18.3260406 L24.1704098,18.3260406 Z" id="Fill-35" fill="#1C627E" mask="url(#mask-2)"></path>
                <path d="M28.9216575,28.8565925 C28.9216575,28.8565925 26.8831757,32.0733619 20.8542488,32.0733619 C14.8163909,32.0733619 16.3033885,29.0123237 8.75508931,29.0123237 C2.96115708,29.0123237 3.29383373,32.013637 -2.60950223,32.013637 C-8.00600867,32.013637 -9.62083005,29.0100909 -13.4002824,28.9760422 L-17.8171789,28.9760422 L-17.7875952,28.4982434 L-13.3852115,28.4982434 C-9.68669556,28.4831726 -7.99763593,25.6409395 -2.60950223,25.6409395 C3.27318098,25.6409395 2.96729708,28.5082906 8.75508931,28.5082906 C16.2726885,28.5082906 14.6199107,25.629776 20.8542488,25.629776 C26.6308773,25.629776 28.9216575,28.8565925 28.9216575,28.8565925 Z M25.1952325,28.2074336 C25.1952325,27.7324257 24.8106449,27.3472841 24.3356317,27.3472841 C23.8611768,27.3472841 23.476031,27.7324257 23.476031,28.2074336 C23.476031,28.6818834 23.8611768,29.0670249 24.3356317,29.0670249 C24.8106449,29.0670249 25.1952325,28.6818834 25.1952325,28.2074336 L25.1952325,28.2074336 Z" id="Fill-36" fill="#1C627E" mask="url(#mask-2)"></path>
                <path d="M41.6828211,34.0481892 C41.6828211,34.0481892 39.6448976,37.2649586 33.6159706,37.2649586 C27.5781127,37.2649586 29.0645521,34.2033622 21.5168111,34.2033622 C15.7228789,34.2033622 16.0555556,37.2046755 10.1522196,37.2046755 C4.75515498,37.2046755 3.14089178,34.2016877 -0.639118729,34.1670807 L-5.05601524,34.1670807 L-5.02587339,33.6892819 L-0.624047807,33.6892819 C3.07446809,33.6747693 4.76408589,30.831978 10.1522196,30.831978 C16.0349028,30.831978 15.7290189,33.6993291 21.5168111,33.6993291 C29.0344103,33.6993291 27.3816325,30.8213727 33.6159706,30.8213727 C39.3925992,30.8213727 41.6828211,34.0481892 41.6828211,34.0481892 Z M37.9569543,33.3984721 C37.9569543,32.9234642 37.5718085,32.5388808 37.0967954,32.5388808 C36.6223404,32.5388808 36.2371946,32.9234642 36.2371946,33.3984721 C36.2371946,33.8734801 36.6223404,34.2580635 37.0967954,34.2580635 C37.5718085,34.2580635 37.9569543,33.8734801 37.9569543,33.3984721 L37.9569543,33.3984721 Z" id="Fill-37" fill="#1C627E" mask="url(#mask-2)"></path>
                <path d="M18.3848503,24.7244142 C18.3848503,24.7244142 16.3463685,27.9411836 10.3174416,27.9411836 C4.27958366,27.9411836 5.76602312,24.8801453 -1.78171789,24.8801453 C-7.57565012,24.8801453 -7.24297347,27.8814587 -13.1468676,27.8814587 C-18.543374,27.8814587 -20.1576372,24.8779126 -23.9376478,24.8438639 L-28.3545443,24.8438639 L-28.3244024,24.3660651 L-23.9225768,24.3660651 C-20.2240609,24.3509943 -18.5350013,21.508203 -13.1468676,21.508203 C-7.2641844,21.508203 -7.56951011,24.3755541 -1.78171789,24.3755541 C5.73532309,24.3755541 4.08254531,21.4975977 10.3174416,21.4975977 C16.0940701,21.4975977 18.3848503,24.7244142 18.3848503,24.7244142 Z M14.6584253,24.0746971 C14.6584253,23.6002473 14.2732795,23.2151058 13.7988245,23.2151058 C13.3238114,23.2151058 12.9392238,23.6002473 12.9392238,24.0746971 C12.9392238,24.549705 13.3238114,24.9342884 13.7988245,24.9342884 C14.2732795,24.9342884 14.6584253,24.549705 14.6584253,24.0746971 L14.6584253,24.0746971 Z" id="Fill-38" fill="#1C627E" mask="url(#mask-2)"></path>
                <path d="M52.5350013,0.24001576 C52.5350013,0.24001576 50.2442212,-2.98680077 44.4681508,-2.98680077 C38.2332545,-2.98680077 39.8860323,-0.108844356 32.3684331,-0.108844356 C26.5811991,-0.108844356 26.8865248,-2.97619543 21.0038416,-2.97619543 C15.6157079,-2.97619543 13.9266483,-0.133404109 10.2275742,-0.118891528 L5.82574862,-0.118891528 L5.79560678,0.359465464 L10.2125033,0.359465464 C13.9925138,0.393514212 15.606777,3.3965021 21.0038416,3.3965021 C26.9071776,3.3965021 26.5745009,0.395746916 32.3684331,0.395746916 C39.9161742,0.395746916 38.4302929,3.45622695 44.4681508,3.45622695 C50.4965196,3.45622695 52.5350013,0.24001576 52.5350013,0.24001576" id="Fill-39" fill="#1C627E" mask="url(#mask-2)"></path>
                <path d="M48.8085763,-0.409701321 C48.8085763,-0.88415108 48.4234305,-1.26929265 47.9489756,-1.26929265 C47.4739624,-1.26929265 47.0893748,-0.88415108 47.0893748,-0.409701321 C47.0893748,0.0653066138 47.4739624,0.449890006 47.9489756,0.449890006 C48.4234305,0.449890006 48.8085763,0.0653066138 48.8085763,-0.409701321" id="Fill-40" fill="#1C627E" mask="url(#mask-2)"></path>
                <path d="M13.8836682,48.0042684 C13.8836682,48.0042684 16.1694247,44.7835918 21.9343315,44.7835918 C28.1563895,44.7835918 26.5069609,47.6559665 34.0100473,47.6559665 C39.7861177,47.6559665 39.480792,44.7941972 45.3523115,44.7941972 C50.7292816,44.7941972 52.4155503,47.6319649 56.1068098,47.6464775 L60.5002627,47.6464775 L60.5298463,48.1231599 L56.1213226,48.1231599 C52.3496848,48.1577669 50.7376543,51.155173 45.3523115,51.155173 C39.4601392,51.155173 39.7922577,48.1594414 34.0100473,48.1594414 C26.476819,48.1594414 27.9604676,51.2143397 21.9343315,51.2143397 C15.9176845,51.2143397 13.8836682,48.0042684 13.8836682,48.0042684 Z M16.9603691,47.445534 C16.9603691,47.9194256 17.3443985,48.3034508 17.8182952,48.3034508 C18.292192,48.3034508 18.6762214,47.9194256 18.6762214,47.445534 C18.6762214,46.9716425 18.292192,46.5876172 17.8182952,46.5876172 C17.3443985,46.5876172 16.9603691,46.9716425 16.9603691,47.445534 L16.9603691,47.445534 Z" id="Fill-41" fill="#1C627E" mask="url(#mask-2)"></path>
                <path d="M13.8836682,48.0042684 C13.8836682,48.0042684 16.1694247,44.7835918 21.9343315,44.7835918 C28.1563895,44.7835918 26.5069609,47.6559665 34.0100473,47.6559665 C39.7861177,47.6559665 39.480792,44.7941972 45.3523115,44.7941972 C50.7292816,44.7941972 52.4155503,47.6319649 56.1068098,47.6464775 L60.5002627,47.6464775 L60.5298463,48.1231599 L56.1213226,48.1231599 C52.3496848,48.1577669 50.7376543,51.155173 45.3523115,51.155173 C39.4601392,51.155173 39.7922577,48.1594414 34.0100473,48.1594414 C26.476819,48.1594414 27.9604676,51.2143397 21.9343315,51.2143397 C15.9176845,51.2143397 13.8836682,48.0042684 13.8836682,48.0042684 Z M16.9603691,47.445534 C16.9603691,47.9194256 17.3443985,48.3034508 17.8182952,48.3034508 C18.292192,48.3034508 18.6762214,47.9194256 18.6762214,47.445534 C18.6762214,46.9716425 18.292192,46.5876172 17.8182952,46.5876172 C17.3443985,46.5876172 16.9603691,46.9716425 16.9603691,47.445534 L16.9603691,47.445534 Z" id="Fill-42" fill="#1C627E" mask="url(#mask-2)"></path>
                <path d="M42.0021014,43.5159737 C42.0021014,43.5159737 39.9675269,46.7266031 33.95088,46.7266031 C27.9247439,46.7266031 29.4083924,43.6711467 21.8751642,43.6711467 C16.0929538,43.6711467 16.4250722,46.6668783 10.5334581,46.6668783 C5.14755713,46.6668783 3.53608484,43.6694721 -0.236111111,43.6354234 L-4.64463488,43.6354234 L-4.61505122,43.1581828 L-0.221598371,43.1581828 C3.46966115,43.1436702 5.15592987,40.3064606 10.5334581,40.3064606 C16.4044195,40.3064606 16.0990938,43.1682299 21.8751642,43.1682299 C29.3776924,43.1682299 27.7288219,40.2958553 33.95088,40.2958553 C39.7157867,40.2958553 42.0021014,43.5159737 42.0021014,43.5159737 Z M38.2829328,42.8679311 C38.2829328,42.3940396 37.8989033,42.0100143 37.4250066,42.0100143 C36.9511098,42.0100143 36.5670804,42.3940396 36.5670804,42.8679311 C36.5670804,43.3418227 36.9511098,43.7258479 37.4250066,43.7258479 C37.8989033,43.7258479 38.2829328,43.3418227 38.2829328,42.8679311 L38.2829328,42.8679311 Z" id="Fill-43" fill="#1C627E" mask="url(#mask-2)"></path>
                <path d="M42.0021014,43.5159737 C42.0021014,43.5159737 39.9675269,46.7266031 33.95088,46.7266031 C27.9247439,46.7266031 29.4083924,43.6711467 21.8751642,43.6711467 C16.0929538,43.6711467 16.4250722,46.6668783 10.5334581,46.6668783 C5.14755713,46.6668783 3.53608484,43.6694721 -0.236111111,43.6354234 L-4.64463488,43.6354234 L-4.61505122,43.1581828 L-0.221598371,43.1581828 C3.46966115,43.1436702 5.15592987,40.3064606 10.5334581,40.3064606 C16.4044195,40.3064606 16.0990938,43.1682299 21.8751642,43.1682299 C29.3776924,43.1682299 27.7288219,40.2958553 33.95088,40.2958553 C39.7157867,40.2958553 42.0021014,43.5159737 42.0021014,43.5159737 Z M38.2829328,42.8679311 C38.2829328,42.3940396 37.8989033,42.0100143 37.4250066,42.0100143 C36.9511098,42.0100143 36.5670804,42.3940396 36.5670804,42.8679311 C36.5670804,43.3418227 36.9511098,43.7258479 37.4250066,43.7258479 C37.8989033,43.7258479 38.2829328,43.3418227 38.2829328,42.8679311 L38.2829328,42.8679311 Z" id="Fill-44" fill="#1C627E" mask="url(#mask-2)"></path>
            </g>
            <path d="M165,45.0003246 C165,45.5520935 165.448052,46 166,46 C166.551948,46 167,45.5520935 167,45.0003246 C167,44.4479065 166.551948,44 166,44 C165.448052,44 165,44.4479065 165,45.0003246" id="Fill-46" fill="#E9832C"></path>
            <path d="M186,35.9996754 C186,36.5520935 186.447403,37 187,37 C187.552597,37 188,36.5520935 188,35.9996754 C188,35.4479065 187.552597,35 187,35 C186.447403,35 186,35.4479065 186,35.9996754" id="Fill-47" fill="#E9832C"></path>
            <path d="M172,31 C172,31.5525974 172.447403,32 173,32 C173.552597,32 174,31.5525974 174,31 C174,30.4480519 173.552597,30 173,30 C172.447403,30 172,30.4480519 172,31" id="Fill-48" fill="#E9832C"></path>
            <path d="M184,27.0003246 C184,27.5527426 184.448052,28 185,28 C185.552597,28 186,27.5527426 186,27.0003246 C186,26.4479065 185.552597,26 185,26 C184.448052,26 184,26.4479065 184,27.0003246" id="Fill-49" fill="#E9832C"></path>
            <path d="M184,18 C184,18.5525974 184.448052,19 185,19 C185.552597,19 186,18.5525974 186,18 C186,17.4474026 185.552597,17 185,17 C184.448052,17 184,17.4474026 184,18" id="Fill-50" fill="#E9832C"></path>
            <path d="M151,23 C151,23.5523748 151.447625,24 152,24 C152.552375,24 153,23.5523748 153,23 C153,22.4476252 152.552375,22 152,22 C151.447625,22 151,22.4476252 151,23" id="Fill-51" fill="#E9832C"></path>
            <path d="M182,12 C182,11.4474026 181.551948,11 181,11 C180.447403,11 180,11.4474026 180,12 C180,12.5519481 180.447403,13 181,13 C181.551948,13 182,12.5519481 182,12" id="Fill-52" fill="#E9832C"></path>
            <path d="M172,17 C172,16.4474026 171.551948,16 170.999351,16 C170.447403,16 170,16.4474026 170,17 C170,17.5519481 170.447403,18 170.999351,18 C171.551948,18 172,17.5519481 172,17" id="Fill-53" fill="#E9832C"></path>
            <path d="M169,26 C169,25.4474026 168.551948,25 168,25 C167.447403,25 167,25.4474026 167,26 C167,26.5519481 167.447403,27 168,27 C168.551948,27 169,26.5519481 169,26" id="Fill-54" fill="#E9832C"></path>
            <path d="M171,36.0003246 C171,35.4479065 170.552597,35 170,35 C169.448052,35 169,35.4479065 169,36.0003246 C169,36.5520935 169.448052,37 170,37 C170.552597,37 171,36.5520935 171,36.0003246" id="Fill-55" fill="#E9832C"></path>
            <path d="M184,41 C184,40.4474026 183.552093,40 182.999675,40 C182.447907,40 182,40.4474026 182,41 C182,41.5525974 182.447907,42 182.999675,42 C183.552093,42 184,41.5525974 184,41" id="Fill-56" fill="#E9832C"></path>
            <path d="M161,32 C161,31.4480519 160.551948,31 160,31 C159.447403,31 159,31.4480519 159,32 C159,32.5525974 159.447403,33 160,33 C160.551948,33 161,32.5525974 161,32" id="Fill-57" fill="#E9832C"></path>
            <path d="M163,56 C163,56.5523748 163.447625,57 164,57 C164.552375,57 165,56.5523748 165,56 C165,55.4476252 164.552375,55 164,55 C163.447625,55 163,55.4476252 163,56" id="Fill-58" fill="#E9832C"></path>
            <path d="M184,51 C184,50.4476252 183.552375,50 183,50 C182.447625,50 182,50.4476252 182,51 C182,51.5523748 182.447625,52 183,52 C183.552375,52 184,51.5523748 184,51" id="Fill-59" fill="#E9832C"></path>
        </g>
    </g>
</svg>